<mxfile host="app.diagrams.net" agent="Mozilla/5.0 (Windows NT 10.0; Win64; x64) AppleWebKit/537.36 (KHTML, like Gecko) Chrome/126.0.0.0 Safari/537.36" version="24.7.5">
  <diagram name="Страница — 1" id="hNXLFeZa8NEh3514LAsu">
    <mxGraphModel dx="1032" dy="618" grid="1" gridSize="10" guides="1" tooltips="1" connect="1" arrows="1" fold="1" page="1" pageScale="1" pageWidth="827" pageHeight="1169" math="0" shadow="0">
      <root>
        <mxCell id="0" />
        <mxCell id="1" parent="0" />
        <mxCell id="0AP3CNTXofGZZ-9nhlWj-21" value="" style="rounded=0;whiteSpace=wrap;html=1;fillColor=#E3E3E3;strokeColor=#666666;fontColor=#663300;" parent="1" vertex="1">
          <mxGeometry x="20" y="20" width="770" height="360" as="geometry" />
        </mxCell>
        <mxCell id="0AP3CNTXofGZZ-9nhlWj-1" value="" style="rounded=1;whiteSpace=wrap;html=1;labelBorderColor=default;" parent="1" vertex="1">
          <mxGeometry x="34" y="110" width="160" height="210" as="geometry" />
        </mxCell>
        <mxCell id="0AP3CNTXofGZZ-9nhlWj-16" value="" style="strokeWidth=2;html=1;shape=mxgraph.flowchart.database;whiteSpace=wrap;strokeColor=#660066;" parent="1" vertex="1">
          <mxGeometry x="64" y="220" width="40" height="40" as="geometry" />
        </mxCell>
        <mxCell id="0AP3CNTXofGZZ-9nhlWj-18" value="" style="strokeWidth=2;html=1;shape=mxgraph.flowchart.database;whiteSpace=wrap;strokeColor=#006600;" parent="1" vertex="1">
          <mxGeometry x="64" y="170" width="40" height="40" as="geometry" />
        </mxCell>
        <mxCell id="0AP3CNTXofGZZ-9nhlWj-19" value="" style="strokeWidth=2;html=1;shape=mxgraph.flowchart.database;whiteSpace=wrap;strokeColor=#663300;" parent="1" vertex="1">
          <mxGeometry x="64" y="120" width="40" height="40" as="geometry" />
        </mxCell>
        <mxCell id="0AP3CNTXofGZZ-9nhlWj-20" value="Source&lt;div&gt;Layer&lt;/div&gt;" style="text;html=1;align=center;verticalAlign=middle;whiteSpace=wrap;rounded=0;fontSize=18;fontStyle=1" parent="1" vertex="1">
          <mxGeometry x="64" y="320" width="100" height="50" as="geometry" />
        </mxCell>
        <mxCell id="0AP3CNTXofGZZ-9nhlWj-22" value="&lt;font style=&quot;font-size: 22px;&quot;&gt;Примерная архитектура аналитического решения&lt;/font&gt;" style="text;html=1;align=center;verticalAlign=middle;whiteSpace=wrap;rounded=0;fontSize=22;fontStyle=1" parent="1" vertex="1">
          <mxGeometry x="54" y="40" width="550" height="30" as="geometry" />
        </mxCell>
        <mxCell id="0AP3CNTXofGZZ-9nhlWj-62" style="edgeStyle=orthogonalEdgeStyle;rounded=0;orthogonalLoop=1;jettySize=auto;html=1;labelBackgroundColor=none;fontSize=14;strokeWidth=2;strokeColor=#663300;" parent="1" source="0AP3CNTXofGZZ-9nhlWj-23" target="0AP3CNTXofGZZ-9nhlWj-30" edge="1">
          <mxGeometry relative="1" as="geometry" />
        </mxCell>
        <mxCell id="0AP3CNTXofGZZ-9nhlWj-23" value="App" style="text;html=1;align=left;verticalAlign=middle;whiteSpace=wrap;rounded=0;fontSize=18;fontStyle=1" parent="1" vertex="1">
          <mxGeometry x="114" y="125" width="56" height="30" as="geometry" />
        </mxCell>
        <mxCell id="0AP3CNTXofGZZ-9nhlWj-63" style="edgeStyle=orthogonalEdgeStyle;rounded=0;orthogonalLoop=1;jettySize=auto;html=1;labelBackgroundColor=none;fontSize=14;strokeWidth=2;strokeColor=#006600;" parent="1" source="0AP3CNTXofGZZ-9nhlWj-24" target="0AP3CNTXofGZZ-9nhlWj-30" edge="1">
          <mxGeometry relative="1" as="geometry" />
        </mxCell>
        <mxCell id="0AP3CNTXofGZZ-9nhlWj-24" value="Stock" style="text;html=1;align=left;verticalAlign=middle;whiteSpace=wrap;rounded=0;fontSize=18;fontStyle=1" parent="1" vertex="1">
          <mxGeometry x="114" y="175" width="56" height="30" as="geometry" />
        </mxCell>
        <mxCell id="0AP3CNTXofGZZ-9nhlWj-25" value="CRM" style="text;html=1;align=left;verticalAlign=middle;whiteSpace=wrap;rounded=0;fontSize=18;fontStyle=1" parent="1" vertex="1">
          <mxGeometry x="114" y="225" width="56" height="30" as="geometry" />
        </mxCell>
        <mxCell id="0AP3CNTXofGZZ-9nhlWj-26" value="" style="strokeWidth=2;html=1;shape=mxgraph.flowchart.database;whiteSpace=wrap;strokeColor=#0066CC;" parent="1" vertex="1">
          <mxGeometry x="64" y="270" width="40" height="40" as="geometry" />
        </mxCell>
        <mxCell id="0AP3CNTXofGZZ-9nhlWj-27" value="API" style="text;html=1;align=left;verticalAlign=middle;whiteSpace=wrap;rounded=0;fontSize=18;fontStyle=1" parent="1" vertex="1">
          <mxGeometry x="114" y="275" width="56" height="30" as="geometry" />
        </mxCell>
        <mxCell id="0AP3CNTXofGZZ-9nhlWj-28" value="" style="rounded=1;whiteSpace=wrap;html=1;" parent="1" vertex="1">
          <mxGeometry x="260" y="80" width="290" height="260" as="geometry" />
        </mxCell>
        <mxCell id="0AP3CNTXofGZZ-9nhlWj-29" value="" style="rounded=1;whiteSpace=wrap;html=1;" parent="1" vertex="1">
          <mxGeometry x="614" y="110" width="160" height="210" as="geometry" />
        </mxCell>
        <mxCell id="0AP3CNTXofGZZ-9nhlWj-30" value="" style="strokeWidth=3;html=1;shape=mxgraph.flowchart.database;whiteSpace=wrap;strokeColor=#FF1929;" parent="1" vertex="1">
          <mxGeometry x="324" y="120" width="170" height="130" as="geometry" />
        </mxCell>
        <mxCell id="0AP3CNTXofGZZ-9nhlWj-32" value="Storage layer" style="text;html=1;align=center;verticalAlign=middle;whiteSpace=wrap;rounded=0;fontSize=18;fontStyle=1" parent="1" vertex="1">
          <mxGeometry x="347" y="340" width="134" height="30" as="geometry" />
        </mxCell>
        <mxCell id="0AP3CNTXofGZZ-9nhlWj-34" value="" style="ellipse;shape=cloud;whiteSpace=wrap;html=1;strokeWidth=3;strokeColor=#0066CC;" parent="1" vertex="1">
          <mxGeometry x="319" y="250" width="180" height="80" as="geometry" />
        </mxCell>
        <mxCell id="0AP3CNTXofGZZ-9nhlWj-35" value="DL" style="text;html=1;align=center;verticalAlign=middle;whiteSpace=wrap;rounded=0;fontSize=24;fontStyle=1" parent="1" vertex="1">
          <mxGeometry x="369" y="275" width="80" height="30" as="geometry" />
        </mxCell>
        <mxCell id="0AP3CNTXofGZZ-9nhlWj-36" value="DW" style="text;html=1;align=center;verticalAlign=middle;whiteSpace=wrap;rounded=0;fontSize=24;fontStyle=1" parent="1" vertex="1">
          <mxGeometry x="367" y="125" width="80" height="30" as="geometry" />
        </mxCell>
        <mxCell id="0AP3CNTXofGZZ-9nhlWj-37" value="Staging" style="text;html=1;align=center;verticalAlign=middle;whiteSpace=wrap;rounded=0;fontSize=18;fontStyle=1" parent="1" vertex="1">
          <mxGeometry x="367" y="170" width="80" height="30" as="geometry" />
        </mxCell>
        <mxCell id="0AP3CNTXofGZZ-9nhlWj-38" value="Bisiness layer" style="text;html=1;align=center;verticalAlign=middle;whiteSpace=wrap;rounded=0;fontSize=18;fontStyle=1" parent="1" vertex="1">
          <mxGeometry x="337" y="205" width="140" height="30" as="geometry" />
        </mxCell>
        <mxCell id="0AP3CNTXofGZZ-9nhlWj-39" value="" style="endArrow=none;html=1;rounded=0;entryX=1;entryY=0;entryDx=0;entryDy=0;exitX=0;exitY=0;exitDx=0;exitDy=0;strokeWidth=3;" parent="1" source="0AP3CNTXofGZZ-9nhlWj-38" target="0AP3CNTXofGZZ-9nhlWj-38" edge="1">
          <mxGeometry width="50" height="50" relative="1" as="geometry">
            <mxPoint x="420" y="220" as="sourcePoint" />
            <mxPoint x="470" y="170" as="targetPoint" />
          </mxGeometry>
        </mxCell>
        <mxCell id="0AP3CNTXofGZZ-9nhlWj-40" value="Bisiness&lt;div&gt;Layer&lt;/div&gt;" style="text;html=1;align=center;verticalAlign=middle;whiteSpace=wrap;rounded=0;fontSize=18;fontStyle=1" parent="1" vertex="1">
          <mxGeometry x="619" y="330" width="150" height="40" as="geometry" />
        </mxCell>
        <mxCell id="0AP3CNTXofGZZ-9nhlWj-54" style="edgeStyle=orthogonalEdgeStyle;rounded=0;orthogonalLoop=1;jettySize=auto;html=1;strokeWidth=2;strokeColor=#006600;" parent="1" source="0AP3CNTXofGZZ-9nhlWj-41" target="0AP3CNTXofGZZ-9nhlWj-30" edge="1">
          <mxGeometry relative="1" as="geometry" />
        </mxCell>
        <mxCell id="0AP3CNTXofGZZ-9nhlWj-41" value="" style="shape=image;html=1;verticalAlign=top;verticalLabelPosition=bottom;labelBackgroundColor=#ffffff;imageAspect=0;aspect=fixed;image=https://cdn3.iconfinder.com/data/icons/document-icons-2/30/647702-excel-128.png" parent="1" vertex="1">
          <mxGeometry x="630" y="125" width="40" height="40" as="geometry" />
        </mxCell>
        <mxCell id="0AP3CNTXofGZZ-9nhlWj-53" style="edgeStyle=orthogonalEdgeStyle;rounded=0;orthogonalLoop=1;jettySize=auto;html=1;strokeWidth=2;strokeColor=#0066CC;" parent="1" source="0AP3CNTXofGZZ-9nhlWj-42" target="0AP3CNTXofGZZ-9nhlWj-30" edge="1">
          <mxGeometry relative="1" as="geometry" />
        </mxCell>
        <mxCell id="0AP3CNTXofGZZ-9nhlWj-42" value="" style="verticalLabelPosition=bottom;html=1;verticalAlign=top;align=center;strokeColor=none;fillColor=#00BEF2;shape=mxgraph.azure.sql_database;" parent="1" vertex="1">
          <mxGeometry x="630.87" y="185" width="37.5" height="50" as="geometry" />
        </mxCell>
        <mxCell id="0AP3CNTXofGZZ-9nhlWj-43" value="" style="image;aspect=fixed;html=1;points=[];align=center;fontSize=12;image=img/lib/azure2/analytics/Power_BI_Embedded.svg;" parent="1" vertex="1">
          <mxGeometry x="630.87" y="254" width="38.25" height="51" as="geometry" />
        </mxCell>
        <mxCell id="0AP3CNTXofGZZ-9nhlWj-44" value="Excel" style="text;html=1;align=left;verticalAlign=middle;whiteSpace=wrap;rounded=0;fontSize=18;fontStyle=1" parent="1" vertex="1">
          <mxGeometry x="680" y="130" width="80" height="30" as="geometry" />
        </mxCell>
        <mxCell id="0AP3CNTXofGZZ-9nhlWj-45" value="SQL" style="text;html=1;align=left;verticalAlign=middle;whiteSpace=wrap;rounded=0;fontSize=18;fontStyle=1" parent="1" vertex="1">
          <mxGeometry x="680" y="195" width="80" height="30" as="geometry" />
        </mxCell>
        <mxCell id="0AP3CNTXofGZZ-9nhlWj-46" value="BI" style="text;html=1;align=left;verticalAlign=middle;whiteSpace=wrap;rounded=0;fontSize=18;fontStyle=1" parent="1" vertex="1">
          <mxGeometry x="680" y="264.5" width="80" height="30" as="geometry" />
        </mxCell>
        <mxCell id="0AP3CNTXofGZZ-9nhlWj-52" style="edgeStyle=orthogonalEdgeStyle;rounded=0;orthogonalLoop=1;jettySize=auto;html=1;entryX=1;entryY=0.5;entryDx=0;entryDy=0;entryPerimeter=0;strokeWidth=2;strokeColor=#663300;" parent="1" source="0AP3CNTXofGZZ-9nhlWj-43" target="0AP3CNTXofGZZ-9nhlWj-30" edge="1">
          <mxGeometry relative="1" as="geometry" />
        </mxCell>
        <mxCell id="0AP3CNTXofGZZ-9nhlWj-64" style="edgeStyle=orthogonalEdgeStyle;rounded=0;orthogonalLoop=1;jettySize=auto;html=1;entryX=0;entryY=0.5;entryDx=0;entryDy=0;entryPerimeter=0;labelBackgroundColor=none;fontSize=14;strokeWidth=2;strokeColor=#660066;" parent="1" source="0AP3CNTXofGZZ-9nhlWj-25" target="0AP3CNTXofGZZ-9nhlWj-30" edge="1">
          <mxGeometry relative="1" as="geometry" />
        </mxCell>
        <mxCell id="0AP3CNTXofGZZ-9nhlWj-65" style="edgeStyle=orthogonalEdgeStyle;rounded=0;orthogonalLoop=1;jettySize=auto;html=1;entryX=0;entryY=0.5;entryDx=0;entryDy=0;entryPerimeter=0;labelBackgroundColor=none;fontSize=14;strokeWidth=2;strokeColor=#0066CC;" parent="1" source="0AP3CNTXofGZZ-9nhlWj-27" target="0AP3CNTXofGZZ-9nhlWj-30" edge="1">
          <mxGeometry relative="1" as="geometry" />
        </mxCell>
        <mxCell id="0AP3CNTXofGZZ-9nhlWj-66" value="" style="line;strokeWidth=2;direction=south;html=1;perimeter=backbonePerimeter;points=[];outlineConnect=0;" parent="1" vertex="1">
          <mxGeometry x="220" y="100" width="10" height="220" as="geometry" />
        </mxCell>
        <mxCell id="0AP3CNTXofGZZ-9nhlWj-68" value="" style="line;strokeWidth=2;direction=south;html=1;perimeter=backbonePerimeter;points=[];outlineConnect=0;" parent="1" vertex="1">
          <mxGeometry x="580" y="100" width="10" height="220" as="geometry" />
        </mxCell>
        <mxCell id="elnXazPuD4mO5bychBt9-1" value="ETL" style="text;html=1;align=left;verticalAlign=middle;whiteSpace=wrap;rounded=0;fontSize=18;fontStyle=1" vertex="1" parent="1">
          <mxGeometry x="264" y="155" width="56" height="30" as="geometry" />
        </mxCell>
      </root>
    </mxGraphModel>
  </diagram>
</mxfile>
